<svg xmlns="http://www.w3.org/2000/svg" width="78" height="29" viewBox="0 0 78 29" fill="none">
  <path d="M63.6475 0C60.8586 0.00529896 58.1313 0.821527 55.798 2.34926C53.4647 3.877 51.626 6.05031 50.5059 8.60447C49.3857 11.1586 49.0326 13.9834 49.4893 16.7347C49.9461 19.486 51.1931 22.0452 53.0785 24.1003C54.425 25.56 56.0593 26.7248 57.8783 27.5216C59.6973 28.3183 61.6617 28.7296 63.6475 28.7296C65.6334 28.7296 67.5977 28.3183 69.4168 27.5216C71.2358 26.7248 72.8701 25.56 74.2166 24.1003C76.102 22.0452 77.349 19.486 77.8057 16.7347C78.2625 13.9834 77.9093 11.1586 76.7892 8.60447C75.6691 6.05031 73.8304 3.877 71.4971 2.34926C69.1638 0.821527 66.4365 0.00529896 63.6475 0ZM63.6475 25.8834C60.6687 25.8789 57.8078 24.7191 55.6668 22.648C56.3168 21.0656 57.4226 19.7121 58.8436 18.7596C60.2647 17.8071 61.9368 17.2985 63.6475 17.2985C65.3583 17.2985 67.0304 17.8071 68.4514 18.7596C69.8725 19.7121 70.9782 21.0656 71.6283 22.648C69.4872 24.7191 66.6263 25.8789 63.6475 25.8834ZM60.7716 11.5037C60.7716 10.9349 60.9403 10.3789 61.2563 9.90596C61.5723 9.43302 62.0215 9.0644 62.547 8.84673C63.0725 8.62906 63.6507 8.5721 64.2086 8.68307C64.7665 8.79404 65.2789 9.06795 65.6811 9.47015C66.0833 9.87236 66.3572 10.3848 66.4682 10.9427C66.5792 11.5006 66.5222 12.0788 66.3046 12.6043C66.0869 13.1298 65.7183 13.579 65.2453 13.895C64.7724 14.211 64.2163 14.3797 63.6475 14.3797C62.8848 14.3797 62.1533 14.0767 61.6139 13.5373C61.0746 12.998 60.7716 12.2665 60.7716 11.5037ZM73.5839 20.1316C72.2991 17.934 70.3217 16.2246 67.9614 15.2712C68.6936 14.441 69.1707 13.4172 69.3354 12.3226C69.5001 11.228 69.3454 10.1091 68.89 9.10018C68.4346 8.09128 67.6977 7.23522 66.7678 6.63474C65.8379 6.03425 64.7545 5.71484 63.6475 5.71484C62.5406 5.71484 61.4572 6.03425 60.5273 6.63474C59.5974 7.23522 58.8605 8.09128 58.4051 9.10018C57.9496 10.1091 57.795 11.228 57.9597 12.3226C58.1244 13.4172 58.6015 14.441 59.3336 15.2712C56.9733 16.2246 54.996 17.934 53.7112 20.1316C52.6873 18.3874 52.1463 16.4021 52.1438 14.3797C52.1438 11.3287 53.3558 8.40268 55.5132 6.24531C57.6705 4.08794 60.5966 2.87594 63.6475 2.87594C66.6985 2.87594 69.6245 4.08794 71.7819 6.24531C73.9393 8.40268 75.1513 11.3287 75.1513 14.3797C75.1488 16.4021 74.6078 18.3874 73.5839 20.1316Z" fill="#333333"/>
  <path d="M28.3017 26.2649L22.9801 20.9863C25.0458 18.4108 26.0461 15.1416 25.7755 11.8512C25.5048 8.56069 23.9837 5.49897 21.525 3.29556C19.0662 1.09215 15.8567 -0.0854742 12.5563 0.00483526C9.25599 0.0951447 6.11567 1.44652 3.7811 3.7811C1.44652 6.11567 0.0951447 9.25599 0.00483526 12.5563C-0.0854742 15.8567 1.09215 19.0662 3.29556 21.525C5.49897 23.9837 8.5607 25.5048 11.8512 25.7755C15.1416 26.0461 18.4108 25.0458 20.9863 22.9801L26.2649 28.2587C26.3982 28.3931 26.5569 28.4998 26.7317 28.5726C26.9064 28.6455 27.0939 28.6829 27.2833 28.6829C27.4726 28.6829 27.6601 28.6455 27.8349 28.5726C28.0097 28.4998 28.1683 28.3931 28.3017 28.2587C28.5602 27.9912 28.7047 27.6338 28.7047 27.2618C28.7047 26.8898 28.5602 26.5323 28.3017 26.2649ZM12.9394 22.9801C10.9536 22.9801 9.01231 22.3913 7.36113 21.288C5.70995 20.1847 4.42301 18.6165 3.66305 16.7818C2.90309 14.9471 2.70425 12.9283 3.09168 10.9806C3.4791 9.03289 4.43538 7.24381 5.8396 5.8396C7.24381 4.43538 9.03289 3.4791 10.9806 3.09168C12.9283 2.70425 14.9471 2.90309 16.7818 3.66305C18.6165 4.42301 20.1847 5.70995 21.288 7.36113C22.3913 9.01231 22.9801 10.9536 22.9801 12.9394C22.9801 15.6024 21.9223 18.1563 20.0393 20.0393C18.1563 21.9223 15.6024 22.9801 12.9394 22.9801Z" fill="#333333"/>
</svg>